<mxfile host="app.diagrams.net" agent="Mozilla/5.0 (Macintosh; Intel Mac OS X 10_15_7) AppleWebKit/537.36 (KHTML, like Gecko) Chrome/131.0.0.0 Safari/537.36" version="24.8.6">
  <diagram name="第 1 页" id="pKzGTHDg8UDbKIEJaJYG">
    <mxGraphModel dx="795" dy="415" grid="1" gridSize="10" guides="1" tooltips="1" connect="1" arrows="1" fold="1" page="1" pageScale="1" pageWidth="827" pageHeight="1169" math="0" shadow="0">
      <root>
        <mxCell id="0" />
        <mxCell id="1" parent="0" />
        <mxCell id="SCojw-LGbxNJPtTOS9fR-3" style="edgeStyle=orthogonalEdgeStyle;rounded=0;orthogonalLoop=1;jettySize=auto;html=1;entryX=0;entryY=0.5;entryDx=0;entryDy=0;" edge="1" parent="1" source="SCojw-LGbxNJPtTOS9fR-1" target="SCojw-LGbxNJPtTOS9fR-2">
          <mxGeometry relative="1" as="geometry" />
        </mxCell>
        <mxCell id="SCojw-LGbxNJPtTOS9fR-15" style="edgeStyle=orthogonalEdgeStyle;rounded=0;orthogonalLoop=1;jettySize=auto;html=1;entryX=0;entryY=0.5;entryDx=0;entryDy=0;" edge="1" parent="1" source="SCojw-LGbxNJPtTOS9fR-1" target="SCojw-LGbxNJPtTOS9fR-14">
          <mxGeometry relative="1" as="geometry" />
        </mxCell>
        <mxCell id="SCojw-LGbxNJPtTOS9fR-27" style="edgeStyle=orthogonalEdgeStyle;rounded=0;orthogonalLoop=1;jettySize=auto;html=1;entryX=0;entryY=0.5;entryDx=0;entryDy=0;" edge="1" parent="1" source="SCojw-LGbxNJPtTOS9fR-1" target="SCojw-LGbxNJPtTOS9fR-26">
          <mxGeometry relative="1" as="geometry" />
        </mxCell>
        <mxCell id="SCojw-LGbxNJPtTOS9fR-1" value="路由" style="rounded=1;whiteSpace=wrap;html=1;" vertex="1" parent="1">
          <mxGeometry x="50" y="310" width="80" height="40" as="geometry" />
        </mxCell>
        <mxCell id="SCojw-LGbxNJPtTOS9fR-5" style="edgeStyle=orthogonalEdgeStyle;rounded=0;orthogonalLoop=1;jettySize=auto;html=1;entryX=0;entryY=0.5;entryDx=0;entryDy=0;" edge="1" parent="1" source="SCojw-LGbxNJPtTOS9fR-2" target="SCojw-LGbxNJPtTOS9fR-4">
          <mxGeometry relative="1" as="geometry" />
        </mxCell>
        <mxCell id="SCojw-LGbxNJPtTOS9fR-7" style="edgeStyle=orthogonalEdgeStyle;rounded=0;orthogonalLoop=1;jettySize=auto;html=1;" edge="1" parent="1" source="SCojw-LGbxNJPtTOS9fR-2" target="SCojw-LGbxNJPtTOS9fR-6">
          <mxGeometry relative="1" as="geometry" />
        </mxCell>
        <mxCell id="SCojw-LGbxNJPtTOS9fR-9" style="edgeStyle=orthogonalEdgeStyle;rounded=0;orthogonalLoop=1;jettySize=auto;html=1;entryX=0;entryY=0.5;entryDx=0;entryDy=0;" edge="1" parent="1" source="SCojw-LGbxNJPtTOS9fR-2" target="SCojw-LGbxNJPtTOS9fR-8">
          <mxGeometry relative="1" as="geometry" />
        </mxCell>
        <mxCell id="SCojw-LGbxNJPtTOS9fR-11" style="edgeStyle=orthogonalEdgeStyle;rounded=0;orthogonalLoop=1;jettySize=auto;html=1;entryX=0;entryY=0.5;entryDx=0;entryDy=0;" edge="1" parent="1" source="SCojw-LGbxNJPtTOS9fR-2" target="SCojw-LGbxNJPtTOS9fR-10">
          <mxGeometry relative="1" as="geometry" />
        </mxCell>
        <mxCell id="SCojw-LGbxNJPtTOS9fR-13" style="edgeStyle=orthogonalEdgeStyle;rounded=0;orthogonalLoop=1;jettySize=auto;html=1;entryX=0;entryY=0.5;entryDx=0;entryDy=0;" edge="1" parent="1" source="SCojw-LGbxNJPtTOS9fR-2" target="SCojw-LGbxNJPtTOS9fR-12">
          <mxGeometry relative="1" as="geometry" />
        </mxCell>
        <mxCell id="SCojw-LGbxNJPtTOS9fR-2" value="超级管理员" style="rounded=1;whiteSpace=wrap;html=1;" vertex="1" parent="1">
          <mxGeometry x="290" y="50" width="90" height="40" as="geometry" />
        </mxCell>
        <mxCell id="SCojw-LGbxNJPtTOS9fR-4" value="项目配置" style="rounded=1;whiteSpace=wrap;html=1;" vertex="1" parent="1">
          <mxGeometry x="450" y="20" width="90" height="40" as="geometry" />
        </mxCell>
        <mxCell id="SCojw-LGbxNJPtTOS9fR-6" value="数据结构配置" style="rounded=1;whiteSpace=wrap;html=1;" vertex="1" parent="1">
          <mxGeometry x="450" y="80" width="90" height="40" as="geometry" />
        </mxCell>
        <mxCell id="SCojw-LGbxNJPtTOS9fR-8" value="表单配置" style="rounded=1;whiteSpace=wrap;html=1;" vertex="1" parent="1">
          <mxGeometry x="450" y="140" width="90" height="40" as="geometry" />
        </mxCell>
        <mxCell id="SCojw-LGbxNJPtTOS9fR-10" value="表格配置" style="rounded=1;whiteSpace=wrap;html=1;" vertex="1" parent="1">
          <mxGeometry x="450" y="200" width="90" height="40" as="geometry" />
        </mxCell>
        <mxCell id="SCojw-LGbxNJPtTOS9fR-12" value="路由配置" style="rounded=1;whiteSpace=wrap;html=1;" vertex="1" parent="1">
          <mxGeometry x="450" y="260" width="90" height="40" as="geometry" />
        </mxCell>
        <mxCell id="SCojw-LGbxNJPtTOS9fR-21" style="edgeStyle=orthogonalEdgeStyle;rounded=0;orthogonalLoop=1;jettySize=auto;html=1;" edge="1" parent="1" source="SCojw-LGbxNJPtTOS9fR-14" target="SCojw-LGbxNJPtTOS9fR-20">
          <mxGeometry relative="1" as="geometry" />
        </mxCell>
        <mxCell id="SCojw-LGbxNJPtTOS9fR-24" style="edgeStyle=orthogonalEdgeStyle;rounded=0;orthogonalLoop=1;jettySize=auto;html=1;entryX=0;entryY=0.5;entryDx=0;entryDy=0;" edge="1" parent="1" source="SCojw-LGbxNJPtTOS9fR-14" target="SCojw-LGbxNJPtTOS9fR-22">
          <mxGeometry relative="1" as="geometry" />
        </mxCell>
        <mxCell id="SCojw-LGbxNJPtTOS9fR-25" style="edgeStyle=orthogonalEdgeStyle;rounded=0;orthogonalLoop=1;jettySize=auto;html=1;entryX=0;entryY=0.5;entryDx=0;entryDy=0;" edge="1" parent="1" source="SCojw-LGbxNJPtTOS9fR-14" target="SCojw-LGbxNJPtTOS9fR-23">
          <mxGeometry relative="1" as="geometry" />
        </mxCell>
        <mxCell id="SCojw-LGbxNJPtTOS9fR-29" style="edgeStyle=orthogonalEdgeStyle;rounded=0;orthogonalLoop=1;jettySize=auto;html=1;entryX=0;entryY=0.5;entryDx=0;entryDy=0;" edge="1" parent="1" source="SCojw-LGbxNJPtTOS9fR-14" target="SCojw-LGbxNJPtTOS9fR-18">
          <mxGeometry relative="1" as="geometry" />
        </mxCell>
        <mxCell id="SCojw-LGbxNJPtTOS9fR-14" value="管理员" style="rounded=1;whiteSpace=wrap;html=1;" vertex="1" parent="1">
          <mxGeometry x="290" y="363" width="90" height="40" as="geometry" />
        </mxCell>
        <mxCell id="SCojw-LGbxNJPtTOS9fR-18" value="数据字典" style="rounded=1;whiteSpace=wrap;html=1;" vertex="1" parent="1">
          <mxGeometry x="450" y="323" width="90" height="40" as="geometry" />
        </mxCell>
        <mxCell id="SCojw-LGbxNJPtTOS9fR-20" value="人员管理" style="rounded=1;whiteSpace=wrap;html=1;" vertex="1" parent="1">
          <mxGeometry x="450" y="383" width="90" height="40" as="geometry" />
        </mxCell>
        <mxCell id="SCojw-LGbxNJPtTOS9fR-22" value="角色管理" style="rounded=1;whiteSpace=wrap;html=1;" vertex="1" parent="1">
          <mxGeometry x="450" y="433" width="90" height="40" as="geometry" />
        </mxCell>
        <mxCell id="SCojw-LGbxNJPtTOS9fR-23" value="部门管理" style="rounded=1;whiteSpace=wrap;html=1;" vertex="1" parent="1">
          <mxGeometry x="450" y="483" width="90" height="40" as="geometry" />
        </mxCell>
        <mxCell id="SCojw-LGbxNJPtTOS9fR-32" style="edgeStyle=orthogonalEdgeStyle;rounded=0;orthogonalLoop=1;jettySize=auto;html=1;entryX=0;entryY=0.5;entryDx=0;entryDy=0;" edge="1" parent="1" source="SCojw-LGbxNJPtTOS9fR-26" target="SCojw-LGbxNJPtTOS9fR-28">
          <mxGeometry relative="1" as="geometry" />
        </mxCell>
        <mxCell id="SCojw-LGbxNJPtTOS9fR-33" style="edgeStyle=orthogonalEdgeStyle;rounded=0;orthogonalLoop=1;jettySize=auto;html=1;" edge="1" parent="1" source="SCojw-LGbxNJPtTOS9fR-26" target="SCojw-LGbxNJPtTOS9fR-30">
          <mxGeometry relative="1" as="geometry" />
        </mxCell>
        <mxCell id="SCojw-LGbxNJPtTOS9fR-34" style="edgeStyle=orthogonalEdgeStyle;rounded=0;orthogonalLoop=1;jettySize=auto;html=1;entryX=0;entryY=0.5;entryDx=0;entryDy=0;" edge="1" parent="1" source="SCojw-LGbxNJPtTOS9fR-26" target="SCojw-LGbxNJPtTOS9fR-31">
          <mxGeometry relative="1" as="geometry" />
        </mxCell>
        <mxCell id="SCojw-LGbxNJPtTOS9fR-26" value="静态路由" style="rounded=1;whiteSpace=wrap;html=1;" vertex="1" parent="1">
          <mxGeometry x="290" y="608" width="90" height="40" as="geometry" />
        </mxCell>
        <mxCell id="SCojw-LGbxNJPtTOS9fR-28" value="首页" style="rounded=1;whiteSpace=wrap;html=1;" vertex="1" parent="1">
          <mxGeometry x="450" y="558" width="90" height="40" as="geometry" />
        </mxCell>
        <mxCell id="SCojw-LGbxNJPtTOS9fR-30" value="404页面" style="rounded=1;whiteSpace=wrap;html=1;" vertex="1" parent="1">
          <mxGeometry x="450" y="608" width="90" height="40" as="geometry" />
        </mxCell>
        <mxCell id="SCojw-LGbxNJPtTOS9fR-31" value="403页面" style="rounded=1;whiteSpace=wrap;html=1;" vertex="1" parent="1">
          <mxGeometry x="450" y="668" width="90" height="40" as="geometry" />
        </mxCell>
      </root>
    </mxGraphModel>
  </diagram>
</mxfile>
